<?xml version="1.0" encoding="utf-8"?>
<!-- Generator: Adobe Illustrator 25.0.1, SVG Export Plug-In . SVG Version: 6.00 Build 0)  -->
<svg version="1.1" id="Layer_1" xmlns="http://www.w3.org/2000/svg" xmlns:xlink="http://www.w3.org/1999/xlink" x="0px" y="0px"
	 viewBox="0 0 735.6 468.5" style="enable-background:new 0 0 735.6 468.5;" xml:space="preserve">
<style type="text/css">
	.st0{fill:url(#SVGID_1_);}
	.st1{fill:none;stroke:#1D1D1B;stroke-width:3;stroke-linecap:round;stroke-linejoin:round;stroke-miterlimit:10;}
	.st2{fill:#1D1D1B;}
</style>
<linearGradient id="SVGID_1_" gradientUnits="userSpaceOnUse" x1="26.008" y1="196.6284" x2="709.6091" y2="196.6284">
	<stop  offset="7.458905e-07" style="stop-color:#D40070"/>
	<stop  offset="1" style="stop-color:#C87650"/>
</linearGradient>
<path class="st0" d="M230.8,294.5h38.6l1.2,1.7v47.3l-1.2,1.7H129c-15.9,0-31.4-3-46.5-9.1C44.8,313,26,283.9,26,248.9v-8.3
	c0-21.7,8.3-42.5,24.9-62.3c22.3-23.3,46.4-34.9,72.3-34.9H134l14.1,1.7c11.5,2.1,22.1,6,32,11.8V123l1.7-3.3h47.3l1.7,3.3V294.5z
	 M57.4,48.1c23.8,0,39.9,11.6,48.2,34.9l1.7,23.3v5.8l-1.7,1.7h-1.7c-26.7,0-43.1-13.3-49-39.9V49.7C54.9,48.6,55.7,48.1,57.4,48.1z
	 M176.4,228.9c-10.2-24.4-26.3-36.5-48.2-36.5l-16.6,3.3c-22.2,10.7-33.2,26.2-33.2,46.5v5c0,4,0.8,9,2.5,15
	c8,20.5,22.7,30.7,44,30.7h54v-42.4C178.8,241.5,178,234.3,176.4,228.9z M192.8,48.1l0.8,0.8v7.5c0,24-5.5,39.5-16.6,46.5
	c-8.3,7.2-19.7,10.8-34.1,10.8l-1.7-1.7V93.7c0-19.1,9.7-32.9,29.1-41.5C177.1,49.4,184.6,48.1,192.8,48.1z M375.7,141.7
	c33.9,0,62.4,15.2,85.6,45.7c11.6,16.3,17.4,36.5,17.4,60.6v45.7h28.2l1.7,1.7v48.2l-1.7,1.7H244.5l-1.7-1.7v-48.2l1.7-1.7h42.4
	c-8.9-14.7-13.3-31.3-13.3-49.8c0-39.6,19.4-70,58.1-91.4C344.1,146,358.8,142.4,375.7,141.7z M325.9,244.7v0.8
	c0,20.6,11.3,36.4,34.1,47.3l7.5,0.8h59v-49.8c0-14.1-4.7-26-14.1-35.7c-10.9-11.1-22.8-16.6-35.7-16.6c-24.6,1.8-41,14.8-49,39
	L325.9,244.7z M405.2,62h1.7l1.7,1.7v15c0,21.9-9.7,37.1-29.1,45.7c-9.7,2.2-17.2,3.3-22.4,3.3l-0.8-0.8v-11.6
	c0-26.4,10.8-43.3,32.4-50.7C393.4,62.8,399,62,405.2,62z M613.3,170.8h57.3l1.7,1.7c0,23.1-10.5,38.6-31.6,46.5l-19.1,1.7h-13.3
	c-25.5,2.8-38.2,15.2-38.2,37.4v0.8c0,13,6.9,24.1,20.8,33.2c2.2,1.1,5.3,1.7,9.1,1.7h108l1.7,1.7v2.5c0,23.7-11.6,39.2-34.9,46.5
	l-8.3,0.8H489.5l-1.7-1.7v-48.2l1.7-1.7h37.4c-5-12.5-7.5-24.6-7.5-36.5V253c0-22.8,8.9-43.1,26.6-60.6
	C562.6,178,585,170.8,613.3,170.8z"/>
<line class="st1" x1="589.5" y1="416.4" x2="709.6" y2="416.4"/>
<g>
	<path d="M202.5,406.8c2.6,0,4.8,0.9,6.6,2.8c1.8,1.8,2.8,4,2.8,6.6v13c0,2.4-0.9,4.4-2.6,6.2c-1.7,1.7-3.8,2.6-6.2,2.6H194
		c-2.7,0-4.9-0.9-6.8-2.8c-1.9-1.9-2.8-4.2-2.8-6.8v-6.9c0-0.4,0.2-0.6,0.6-0.6h2.1c0.4,0,0.6,0.2,0.6,0.6v6.9
		c0,1.8,0.6,3.3,1.9,4.5c1.2,1.2,2.8,1.9,4.5,1.9h9.2c1.5,0,2.8-0.5,3.9-1.6c1.1-1.1,1.6-2.4,1.6-3.9v-0.2h-6.1
		c-2.6,0-4.8-0.9-6.6-2.8c-1.8-1.8-2.8-4.1-2.8-6.6v-3.3c0-2.6,0.9-4.8,2.8-6.6C197.7,407.7,199.9,406.8,202.5,406.8z M208.6,416.2
		c0-1.7-0.6-3.1-1.8-4.3c-1.2-1.2-2.6-1.8-4.3-1.8c-1.7,0-3.1,0.6-4.3,1.8c-1.2,1.2-1.8,2.6-1.8,4.3v3.3c0,1.7,0.6,3.1,1.8,4.3
		c1.2,1.2,2.6,1.8,4.3,1.8h6.1V416.2z M198.3,402.4c-0.4,0-0.6-0.2-0.6-0.6v-2.4c0-0.4,0.2-0.6,0.6-0.6h2.2c0.4,0,0.6,0.2,0.6,0.6
		v2.4c0,0.4-0.2,0.6-0.6,0.6H198.3z M204.2,402.4c-0.4,0-0.6-0.2-0.6-0.6v-2.4c0-0.4,0.2-0.6,0.6-0.6h2.2c0.4,0,0.6,0.2,0.6,0.6v2.4
		c0,0.4-0.2,0.6-0.6,0.6H204.2z"/>
	<path d="M227.2,406.8c2.2,0,4.1,0.8,5.7,2.4c1.6,1.6,2.3,3.5,2.3,5.7v7.1c0,2.6-0.8,4.5-2.5,5.7c-1.3,0.9-3,1.3-5.1,1.3h-9.5
		c-0.4,0-0.6-0.2-0.6-0.6v-2.1c0-0.4,0.2-0.6,0.6-0.6h9.5c1.7,0,2.9-0.3,3.5-1c0.5-0.5,0.8-1.5,0.8-2.8v-7.1c0-1.3-0.5-2.4-1.4-3.4
		c-0.9-0.9-2.1-1.4-3.4-1.4c-1.9,0-3.3,0.3-4.2,1l-0.8,0.6c-0.1,0.1-0.2,0.1-0.4,0.1h-0.1c-0.2,0-0.3-0.1-0.4-0.2l-1.2-1.7
		c-0.1-0.1-0.1-0.2-0.1-0.3v-0.1c0-0.2,0.1-0.3,0.2-0.4l0.9-0.6C222.6,407.3,224.6,406.8,227.2,406.8z"/>
	<path d="M248.1,428.9c-1.7,0-3.1-0.5-4.1-1.5c-1-1-1.5-2.4-1.5-4.1v-25.8c0-0.4,0.2-0.6,0.6-0.6h2.1c0.4,0,0.6,0.2,0.6,0.6v25.8
		c0,0.8,0.2,1.4,0.6,1.8c0.4,0.4,1,0.6,1.8,0.6h2.2v3.3H248.1z"/>
	<path d="M284.9,428.9h-1.5c-1.9,0-3.5-0.6-4.7-1.8c-0.1-0.1-0.3-0.4-0.6-0.7c-1.3,1.6-3.3,2.4-5.9,2.4h-23.2v-3.3h7v-16.8
		c0-0.4,0.2-0.6,0.6-0.6h2.1c0.4,0,0.6,0.2,0.6,0.6v4.1c4.4-4.1,8.2-6.2,11.4-6.2c2.8,0,5,0.9,6.6,2.8c1.7,1.9,2.5,4.3,2.5,7.5v6.1
		c0,0.7,0.2,1.2,0.6,1.6c0.6,0.6,1.3,0.8,2.4,0.8h2.1V428.9z M276.6,417.1c0-1.6-0.3-3-0.9-4.1c-1-1.9-2.6-2.9-5-2.9
		c-3,0-6.8,2.4-11.4,7.3v8.3h13c1.5,0,2.6-0.3,3.3-1c0.7-0.7,1-1.8,1-3.3V417.1z"/>
	<path d="M294.1,396.8c0.4,0,0.6,0.2,0.6,0.6v25.8c0,1.7-0.5,3.1-1.5,4.1c-1,1-2.4,1.5-4.1,1.5h-5.1v-3.3h5.2c0,0,0,0,0,0
		c0.8,0,1.4-0.2,1.8-0.6c0.4-0.4,0.6-1,0.6-1.8v-25.9c0-0.4,0.2-0.6,0.6-0.6H294.1z"/>
	<path d="M305.1,428.3c0,0.4-0.2,0.6-0.6,0.6h-2.1c-0.4,0-0.6-0.2-0.6-0.6v-31c0-0.4,0.2-0.6,0.6-0.6h2.1c0.4,0,0.6,0.2,0.6,0.6
		V428.3z"/>
	<path d="M334.8,406.8c2.8,0,5.3,1,7.3,3c2,2,3,4.4,3,7.3v4.3c0,2.4-0.7,4.2-2,5.6c-1.3,1.3-3.2,2-5.6,2h-9.1
		c-1.1,0-1.9,0.4-2.5,1.2c-0.5,0.7-0.8,1.6-0.8,2.7c0,1.1,0.4,2,1.1,2.7c0.8,0.8,1.7,1.2,2.7,1.2h2.7c0.4,0,0.6,0.2,0.6,0.6v2.1
		c0,0.4-0.2,0.6-0.6,0.6h-2.7c-2,0-3.6-0.7-5-2.1c-1.4-1.4-2.1-3.1-2.1-5.1c0-2.1,0.6-3.8,1.9-5.1c1.2-1.3,2.8-2,4.7-2h9.1
		c1.5,0,2.6-0.3,3.3-1c0.7-0.7,1-1.8,1-3.3v-4.3c0-1.9-0.7-3.6-2-5c-1.4-1.4-3-2.1-5-2.1c-3.2,0-5.6,1.1-7.1,3.3l-0.6,0.9
		c-0.1,0.2-0.3,0.3-0.4,0.3c-0.1,0-0.2-0.1-0.4-0.2l-1.7-1.2c-0.1-0.1-0.2-0.2-0.2-0.4v-0.1c0-0.1,0-0.2,0.1-0.3l0.6-0.9
		c1.1-1.6,2.6-2.8,4.6-3.7C331.2,407.1,332.9,406.8,334.8,406.8z M335.6,431.9c0.4,0,0.6,0.2,0.6,0.6v2.4c0,0.4-0.2,0.6-0.6,0.6
		h-2.2c-0.4,0-0.6-0.2-0.6-0.6v-2.4c0-0.4,0.2-0.6,0.6-0.6H335.6z"/>
	<path d="M355.5,428.3c0,0.4-0.2,0.6-0.6,0.6h-2.1c-0.4,0-0.6-0.2-0.6-0.6v-31c0-0.4,0.2-0.6,0.6-0.6h2.1c0.4,0,0.6,0.2,0.6,0.6
		V428.3z"/>
	<path d="M370.5,406.8c2.6,0,4.8,0.9,6.6,2.8c1.8,1.8,2.7,4,2.7,6.6v13.3c0,2.4-0.9,4.4-2.6,6.1c-1.7,1.7-3.8,2.6-6.2,2.6h-4.6
		c-0.4,0-0.6-0.2-0.6-0.6v-2.1c0-0.4,0.2-0.6,0.6-0.6h4.6c1.5,0,2.8-0.5,3.9-1.6c1.1-1.1,1.6-2.4,1.6-3.9v-0.5h-6.1
		c-2.6,0-4.8-0.9-6.6-2.7c-1.8-1.8-2.8-4.1-2.8-6.6v-3.3c0-2.6,0.9-4.8,2.8-6.6C365.7,407.7,367.9,406.8,370.5,406.8z M376.6,416.2
		c0-1.7-0.6-3.1-1.8-4.3c-1.2-1.2-2.6-1.8-4.3-1.8s-3.1,0.6-4.3,1.8c-1.2,1.2-1.8,2.6-1.8,4.3v3.3c0,1.7,0.6,3.1,1.8,4.3
		c1.2,1.2,2.7,1.8,4.3,1.8h6.1V416.2z"/>
	<path d="M399.3,428.9h-6.8v1.7c0,2.4-0.7,4.2-2,5.6c-1.3,1.3-3.2,2-5.6,2h-2.2c-0.4,0-0.6-0.2-0.6-0.6v-2.1c0-0.4,0.2-0.6,0.6-0.6
		h2.2c1.5,0,2.6-0.3,3.3-1c0.7-0.7,1-1.8,1-3.3v-22.3c0-0.4,0.2-0.6,0.6-0.6h2.1c0.4,0,0.6,0.2,0.6,0.6v17.4h6.8V428.9z
		 M389.8,402.4c-0.4,0-0.6-0.2-0.6-0.6v-2.6c0-0.4,0.2-0.6,0.6-0.6h2.2c0.4,0,0.6,0.2,0.6,0.6v2.6c0,0.4-0.2,0.6-0.6,0.6H389.8z"/>
	<path d="M407.3,396.8c0.4,0,0.6,0.2,0.6,0.6v25.8c0,1.7-0.5,3.1-1.5,4.1c-1,1-2.4,1.5-4.1,1.5h-5.1v-3.3h5.2c0,0,0,0,0,0
		c0.8,0,1.4-0.2,1.8-0.6c0.4-0.4,0.6-1,0.6-1.8v-25.9c0-0.4,0.2-0.6,0.6-0.6H407.3z"/>
	<path d="M418.3,428.3c0,0.4-0.2,0.6-0.6,0.6h-2.1c-0.4,0-0.6-0.2-0.6-0.6v-31c0-0.4,0.2-0.6,0.6-0.6h2.1c0.4,0,0.6,0.2,0.6,0.6
		V428.3z"/>
	<path d="M470.4,425.7v3.3H463v0.2c0,2.4-0.9,4.4-2.6,6.2c-1.7,1.7-3.8,2.6-6.1,2.6h-9.2c-2.7,0-4.9-0.9-6.8-2.8
		c-1.9-1.9-2.8-4.2-2.8-6.8v-6.9c0-0.4,0.2-0.6,0.6-0.6h2.1c0.4,0,0.6,0.2,0.6,0.6v6.9c0,1.8,0.6,3.3,1.9,4.5
		c1.2,1.2,2.7,1.9,4.5,1.9h9.2c1.5,0,2.8-0.5,3.9-1.6c1.1-1.1,1.6-2.4,1.6-3.9v-0.2h-6.1c-2.6,0-4.8-0.9-6.6-2.8
		c-1.8-1.8-2.8-4.1-2.8-6.6v-3.3c0-2.6,0.9-4.8,2.8-6.6c1.8-1.8,4-2.8,6.6-2.8c2.6,0,4.9,0.9,6.7,2.8c1.8,1.8,2.7,4.1,2.7,6.8v9.3
		H470.4z M459.8,416.4c0-1.8-0.6-3.3-1.8-4.5c-1.2-1.2-2.6-1.8-4.4-1.8c-1.7,0-3.1,0.6-4.3,1.8c-1.2,1.2-1.8,2.6-1.8,4.3v3.3
		c0,1.7,0.6,3.1,1.8,4.3c1.2,1.2,2.6,1.8,4.3,1.8h6.1V416.4z M449.4,402.4c-0.4,0-0.6-0.2-0.6-0.6v-2.6c0-0.4,0.2-0.6,0.6-0.6h2.2
		c0.4,0,0.6,0.2,0.6,0.6v2.6c0,0.4-0.2,0.6-0.6,0.6H449.4z M455.4,402.4c-0.4,0-0.6-0.2-0.6-0.6v-2.6c0-0.4,0.2-0.6,0.6-0.6h2.2
		c0.4,0,0.6,0.2,0.6,0.6v2.6c0,0.4-0.2,0.6-0.6,0.6H455.4z"/>
	<path d="M486,428.9h-1.5c-2.2,0-3.8-0.5-4.9-1.6c0,0-0.1-0.1-0.1-0.1c0,0,0,0.1-0.1,0.1c0,0-0.1,0.1-0.1,0.1c-1,1-2.4,1.5-4.1,1.5
		h-6.7v-3.3h6.8c0.8,0,1.4-0.2,1.7-0.6c0.4-0.4,0.6-1,0.6-1.8v-14.9c0-0.4,0.2-0.6,0.6-0.6h2.1c0.4,0,0.6,0.2,0.6,0.6v15.6
		c0,0.5,0.1,0.9,0.4,1.1c0.5,0.5,1.3,0.7,2.7,0.7h2.1V428.9z M475.4,433.1c0.4,0,0.6,0.2,0.6,0.6v2.6c0,0.4-0.2,0.6-0.6,0.6h-2.2
		c-0.4,0-0.6-0.2-0.6-0.6v-2.6c0-0.4,0.2-0.6,0.6-0.6H475.4z M481.3,433.1c0.4,0,0.6,0.2,0.6,0.6v2.6c0,0.4-0.2,0.6-0.6,0.6h-2.2
		c-0.4,0-0.6-0.2-0.6-0.6v-2.6c0-0.4,0.2-0.6,0.6-0.6H481.3z"/>
	<path d="M502.1,428.9h-1.5c-2.2,0-3.8-0.5-4.9-1.7c0,0-0.1,0-0.1-0.1l-0.2,0.2c-1,1-2.4,1.5-4.1,1.5h-6.4v-3.3h6.5
		c0.8,0,1.4-0.2,1.8-0.6c0.4-0.4,0.6-1,0.6-1.8v-15c0-0.4,0.2-0.6,0.6-0.6h2.1c0.4,0,0.6,0.2,0.6,0.6v15.6c0,0.5,0.1,0.9,0.4,1.2
		c0.4,0.4,1.3,0.7,2.6,0.7h2.1V428.9z M496.5,432.8c0.4,0,0.6,0.2,0.6,0.6v2.6c0,0.4-0.2,0.6-0.6,0.6h-2.2c-0.4,0-0.6-0.2-0.6-0.6
		v-2.6c0-0.4,0.2-0.6,0.6-0.6H496.5z"/>
	<path d="M536.9,428.9h-1.5c-1.9,0-3.4-0.6-4.6-1.8c-0.1-0.1-0.3-0.4-0.6-0.7c-1.3,1.6-3.3,2.4-5.9,2.4H501v-3.3h7v-28.3
		c0-0.4,0.2-0.6,0.6-0.6h2.1c0.4,0,0.6,0.2,0.6,0.6V413c4.4-4.1,8.3-6.2,11.5-6.2c2.8,0,5,0.9,6.6,2.8c1.7,1.9,2.5,4.4,2.5,7.5v6.1
		c0,0.7,0.2,1.2,0.6,1.6c0.6,0.6,1.3,0.8,2.4,0.8h2.1V428.9z M528.6,417.1c0-1.6-0.3-3-0.9-4.1c-1-1.9-2.6-2.9-4.9-2.9
		c-1.5,0-3.4,0.7-5.7,2.2c-2.3,1.4-4.2,3.2-5.8,5.2v8.3h13c1.5,0,2.6-0.3,3.3-1c0.7-0.7,1-1.8,1-3.3V417.1z"/>
	<path d="M548.6,407.7c0.4,0,0.6,0.2,0.6,0.6v15c0,1.7-0.5,3.1-1.5,4.1c-1.1,1-2.4,1.5-4.1,1.5h-7.6v-3.3h7.7c0,0,0,0,0,0
		c0.8,0,1.4-0.2,1.7-0.6c0.4-0.4,0.6-1,0.6-1.8v-15c0-0.4,0.2-0.6,0.6-0.6H548.6z M543.5,402.4c-0.4,0-0.6-0.2-0.6-0.6v-2.6
		c0-0.4,0.2-0.6,0.6-0.6h2.2c0.4,0,0.6,0.2,0.6,0.6v2.6c0,0.4-0.2,0.6-0.6,0.6H543.5z M551.6,398.6c0.4,0,0.6,0.2,0.6,0.6v2.6
		c0,0.4-0.2,0.6-0.6,0.6h-2.2c-0.4,0-0.6-0.2-0.6-0.6v-2.6c0-0.4,0.2-0.6,0.6-0.6H551.6z"/>
</g>
<g>
	<path class="st2" d="M696.7,357.9c-5.9,3-12,5.4-18.1,7.5c-6.1,2.1-12.3,4-18.6,5.6c-6.3,1.6-12.6,3-19,4.1
		c-6.4,1.1-12.8,2-19.5,2.2c5.9-3,12-5.4,18.1-7.5c6.1-2.1,12.3-4,18.6-5.6c6.3-1.6,12.6-3,19-4.1C683.6,359,690,358.1,696.7,357.9z
		"/>
</g>
<g>
	<g>
		<path class="st2" d="M331.8,26.3c-3.8,4.2-8,7.9-12.3,11.4c-4.3,3.5-8.8,6.7-13.4,9.7c-4.6,3-9.3,5.9-14.2,8.5
			c-4.9,2.6-9.9,5-15.3,6.8c3.8-4.2,8-7.9,12.3-11.4c4.3-3.5,8.8-6.7,13.4-9.7c4.6-3,9.3-5.9,14.2-8.5
			C321.4,30.5,326.4,28.1,331.8,26.3z"/>
	</g>
	<g>
		<path class="st2" d="M333.6,30c1.6,2.2,2.9,4.5,4.1,6.8c1.2,2.4,2.2,4.8,3.1,7.4c0.8,2.6,1.6,5.2,2,8c0.2,1.4,0.4,2.8,0.4,4.3
			c0.1,0.7,0,1.5,0,2.3c0,0.4,0,0.8,0,1.1l-0.1,1.2c-0.4,3.1-1.3,6.7-3.9,10c-1.3,1.6-3,3.1-4.8,4.1c-0.5,0.3-0.9,0.5-1.4,0.7
			c-0.5,0.2-1,0.4-1.4,0.6c-0.5,0.2-1,0.3-1.4,0.4l-1.4,0.3l-0.7,0.1l-0.7,0.1l-1.4,0.1c-0.5,0-0.9,0.1-1.4,0.1l-1.3-0.1
			c-0.8-0.1-1.7-0.1-2.5-0.2l-2.3-0.4c-0.8-0.1-1.5-0.3-2.2-0.5l-2.2-0.6c-1.4-0.5-2.7-1-4.1-1.5l-0.1,0l-0.1,0l0,0c0,0,0,0,0,0
			c0.3,0.1,0.6,0.2,1,0.3c0.7,0.1,1.4,0.2,2.1,0.1c1.4-0.2,2.8-0.9,3.8-2c0.5-0.6,0.9-1.3,1.2-2c0.1-0.4,0.2-0.7,0.3-1.1l0-0.3
			c0,0,0,0,0,0.1l0,0.2c-0.1,0.5-0.2,1.1-0.3,1.6c-0.5,1.9-1,3.4-1.7,4.9c-1.3,2.9-3,5.5-5,8c-2,2.4-4.5,4.7-7.6,6.4
			c-3,1.7-6.9,2.8-10.7,2.5c-0.9-0.1-1.9-0.2-2.8-0.4c-0.9-0.3-1.8-0.5-2.6-0.8c-1.6-0.6-3.1-1.5-4.4-2.4c-0.6-0.5-1.3-1-1.8-1.5
			c-0.6-0.5-1.1-1-1.6-1.6c-1-1.1-1.9-2.2-2.7-3.4c-3.2-4.7-5.2-9.6-6.3-14.9c1,0.9,2,1.8,2.9,2.6l2.9,2.6c1.9,1.6,3.8,3.2,5.8,4.5
			c3.8,2.7,7.9,4.1,10.5,3.4c1.3-0.3,2.5-0.9,3.7-1.9c1.2-1,2.4-2.4,3.5-3.9c1-1.6,2-3.3,2.7-5.1c0.3-0.8,0.6-1.7,0.7-2.3
			c0.1-0.2,0-0.2,0.1-0.3l0,0l0.1-0.4c0.1-0.5,0.2-1,0.4-1.6c0.4-1,1-2,1.7-2.8c1.4-1.6,3.4-2.6,5.4-2.9c1-0.1,2.1-0.1,3.1,0.1
			c0.5,0.1,1,0.3,1.4,0.4l0.3,0.1c1,0.4,2.1,0.8,3.1,1.2l1.5,0.5c0.5,0.2,1,0.3,1.4,0.4l1.4,0.3c0.5,0.1,0.9,0.1,1.3,0.2l0.6,0.1
			l0.5,0c0.2,0,0.4,0,0.5,0l0.3,0l0.2,0c1.3-0.1,1.9-0.2,2.6-0.8c0.8-0.6,1.7-1.9,2.3-3.7c0.7-1.8,1.1-4,1.4-6.2
			c0.3-2.3,0.5-4.7,0.6-7.1C333.7,40.4,333.6,35.4,333.6,30z"/>
	</g>
</g>
<line class="st1" x1="26" y1="416.4" x2="146.1" y2="416.4"/>
</svg>
